PathFileType	4	(X/Y/Z)	RBDS002\RBDS002runT45.trc
DataRate	CameraRate	NumFrames	NumMarkers	Units	OrigDataRate	OrigDataStartFrame	OrigNumFrames
150.000000	150.000000	4	33	mm	150.000000	2812	4500
Frame#	Time	L.ASIS			L.Heel.Bottom			L.Heel.Lateral			L.Heel.Top			L.Iliac.Crest			L.MT1			L.MT5			L.PSIS			L.Shank.Bottom.Lateral			L.Shank.Bottom.Medial			L.Shank.Top.Lateral			L.Shank.Top.Medial			L.Thigh.Bottom.Lateral			L.Thigh.Bottom.Medial			L.Thigh.Top.Lateral			L.Thigh.Top.Medial			R.ASIS			R.ASY			R.Heel.Bottom			R.Heel.Lateral			R.Heel.Top			R.Iliac.Crest			R.MT1			R.MT5			R.PSIS			R.Shank.Bottom.Lateral			R.Shank.Bottom.Medial			R.Shank.Top.Lateral			R.Shank.Top.Medial			R.Thigh.Bottom.Lateral			R.Thigh.Bottom.Medial			R.Thigh.Top.Lateral			R.Thigh.Top.Medial			
		X1	Y1	Z1	X2	Y2	Z2	X3	Y3	Z3	X4	Y4	Z4	X5	Y5	Z5	X6	Y6	Z6	X7	Y7	Z7	X8	Y8	Z8	X9	Y9	Z9	X10	Y10	Z10	X11	Y11	Z11	X12	Y12	Z12	X13	Y13	Z13	X14	Y14	Z14	X15	Y15	Z15	X16	Y16	Z16	X17	Y17	Z17	X18	Y18	Z18	X19	Y19	Z19	X20	Y20	Z20	X21	Y21	Z21	X22	Y22	Z22	X23	Y23	Z23	X24	Y24	Z24	X25	Y25	Z25	X26	Y26	Z26	X27	Y27	Z27	X28	Y28	Z28	X29	Y29	Z29	X30	Y30	Z30	X31	Y31	Z31	X32	Y32	Z32	X33	Y33	Z33	

2813	18.74666666666667	2357.75179793928	946.5182340848861	862.9132033113636	1968.39767727325	532.5835084675699	909.9587426365053	1976.675431628843	505.5488644929763	860.554173519235	2017.77585742578	523.5153608346765	904.2347445142905	2279.00665720413	1031.033525938668	797.5254028619465	1993.7344016314	303.1563535576813	929.9034067451536	1972.236036068528	343.4374770623169	823.2003143915098	2171.144368815958	1006.786276393158	898.4312621709709	2104.800291621888	468.4111458837293	841.2592878853478	2104.080815683942	508.6657088757489	873.0840106940391	2182.25608982737	480.840166111612	822.2638413025721	2185.875545707831	521.7870272227956	856.2248994004448	2411.502649213727	538.4686585949107	801.8407479566845	2369.005247782172	526.7273118225855	862.8762502446733	2349.477798311122	628.0614924628183	788.5087029751409	2307.709443915983	609.0323579076603	839.4786413308447	2335.527085323029	976.288952117843	1072.941320830433	2138.035962049317	88.55775207360102	968.6697250664047	1946.403009299655	61.48382764503818	946.6247679098203	1967.326363466096	70.68002028295784	988.6521452927766	1967.318377430998	109.0264205054866	949.5122806840177	2238.581931181043	1045.060639497325	1118.950934908598	2183.748970246746	52.54103362981801	931.8571568244516	2135.039482443872	44.64348330607555	1035.782345720805	2161.135846487536	1019.784677661454	982.0137563250144	2074.734121034561	173.8817500057341	1022.891330734887	2041.761801009183	204.9280331049713	992.279275143223	2108.92106962113	242.0548943164154	1051.640202991007	2078.468454072218	271.7211733932565	1017.077352456374	2248.759290037785	551.763490624542	1096.111657669363	2200.643457506896	552.2056411232703	1039.11993938848	2221.267953720591	656.870715123299	1117.000359051518	2172.798345059957	655.6373808454607	1065.430668474661	
2814	18.75333333333333	2358.287578272374	950.9206532969265	862.1566639200246	1979.351599775955	510.7275842729986	905.3808929287607	1990.759948440433	483.7371316729012	856.5228978921824	2029.377217327267	505.6874570987803	900.5664792327349	2277.696281544915	1035.662107682424	797.7728784183645	2022.947702558813	284.540335793855	930.1264914237964	2000.166153190158	320.9667541992455	822.0596478539048	2171.503050616273	1010.290556023454	898.6125965815507	2121.880922036271	456.649770101888	840.5607019647717	2117.94226385381	497.0581226685905	871.9543090966667	2198.440986894882	474.5110219486828	822.2034713761265	2198.761267088772	515.8223084669181	855.8926092586131	2426.318198916953	548.5472663520725	803.7298092681382	2383.742817206355	533.8404157004882	863.5722938434826	2360.304043697264	635.1910126295944	789.3842655578956	2318.580109478714	614.3577948975936	839.8540065495342	2335.239189546668	978.1642444112372	1073.010917517675	2108.784601783008	89.55186832754225	969.7388865762349	1916.388154930016	66.86945233223079	947.7540481800482	1937.60731216564	75.08395002772563	989.8748568682541	1938.183616783968	113.987471200748	951.1260167498887	2237.868289902342	1048.91646233677	1118.10398810376	2153.004555904741	52.24692347338932	932.4281488074422	2104.242655648668	44.69564535924513	1036.197964836555	2161.549254046976	1023.062986741639	982.1368025463248	2046.503532150276	177.7658962593222	1023.716810018853	2014.005900211485	209.2617132129249	992.9550214876814	2081.743136604486	245.4566526245122	1052.261245254111	2051.7094347074	275.5198673264887	1017.636883151295	2230.597780316301	553.8523940540266	1096.472425071055	2181.619999118788	556.0275445305239	1040.167018683879	2207.957384510181	660.2990954663101	1116.914038262663	2158.870059258257	661.0482846309245	1065.878671461264	
2815	18.76	2359.219710846318	955.6562273210795	861.5479371629615	1991.352784113638	487.388046046254	901.3671648173071	2005.86363892769	460.8622219143534	853.0007383973166	2041.738335071122	486.5391571914709	897.2854559751152	2277.340835354988	1040.71035838927	798.0793604544889	2053.320709465659	265.7850401502203	930.2380398283149	2029.287903786181	298.6043909262954	821.0311839826825	2172.278741365559	1014.144505985412	898.7383944509029	2139.256922300093	444.4064493998354	839.9796510606947	2131.949064294528	484.60659011391	871.0584802387319	2214.501025994594	467.936879407648	822.3282969638441	2211.334427117168	509.2713015083663	855.8136834117074	2439.974167853296	559.2387803656686	805.9077953841269	2397.528921621323	541.7062971549158	864.6453486184949	2370.437931459406	643.0098608184047	790.5229397094769	2328.857387702124	620.6826757864791	840.6879309207375	2335.348353677456	980.0783903688172	1073.028197142188	2080.12199693407	90.73200656126897	970.7453329199406	1887.063113726011	73.64908854620937	948.8092213832865	1908.600783149806	80.73107251531557	991.014644657906	1909.986695809877	120.1566291655392	952.6647837985104	2238.150320943225	1053.12911314549	1117.157754356723	2122.398656965001	51.88798125859179	932.8151323048173	2073.642768089019	44.99701498077044	1036.511681392662	2162.339214360529	1026.622155282354	982.4274280389792	2018.91184926788	182.6939380649851	1024.471694726549	1986.880239793825	214.5206219928841	993.4513660919956	2055.032511892146	249.9928985064754	1052.761840668818	2025.434118580882	280.3284978173858	1017.991565078955	2212.781322049147	557.0825493046862	1096.752541747346	2163.020682636101	561.0802012702654	1041.159207036762	2195.116847342343	664.5967303907199	1116.818537657666	2145.470443593279	667.402607552763	1066.381421312106	
2816	18.76666666666667	2360.532280857526	960.640447435522	861.1655399385065	2004.75074565362	462.7762150337835	898.040501844354	2022.243206445349	437.1422580249849	850.0942627689191	2055.177498266895	466.2089407456252	894.5106340046623	2277.931164174286	1046.094818504392	798.3980204925151	2084.908558534501	247.0833837927262	930.1827670578966	2059.605742250166	276.6358265631399	820.0966228772071	2173.412698908875	1018.314656359873	898.7955203670832	2157.079647304179	431.7110449973548	839.5314087614975	2146.324250235596	471.3112739181099	870.4141189169695	2230.53816442142	461.0406431261699	822.6400849166031	2223.769323741203	502.0254053221433	855.9886075455057	2452.442330747881	570.3021664187918	808.3055739975351	2410.254684628535	550.1993898391414	866.0566789210834	2379.888451179114	651.3666078752724	791.8576915653605	2338.514538024296	627.8770319462557	841.9040429571855	2335.80183723811	981.9776020090486	1073.021201220483	2052.165311655664	92.03253313143321	971.7472086681574	1858.700373024512	81.90278038304918	949.7765596910438	1880.535048691386	87.68228856227392	992.0634876062687	1883.0146744407	127.5659711967386	954.1395674546076	2239.53394866194	1057.608355130631	1116.120236205488	2092.001654996291	51.46726386598943	933.0418642705908	2043.315277498812	45.5379099202669	1036.76202744991	2163.490669808615	1030.412992008851	982.8443810643789	1992.185120349458	188.6466620682804	1025.222097943865	1960.625530411257	220.6722818693164	993.8216054721299	2029.016594207158	255.656505286176	1053.192656388814	1999.872140039838	286.1283393278346	1018.185658613008	2195.452133019084	561.4520461364103	1096.944885324046	2145.076114595696	567.3912816552037	1042.030530232145	2182.876298055249	669.7322395123992	1116.722714831197	2132.807937835403	674.6846131856471	1066.882979856842	
